<svg width="25" height="25" viewBox="0 0 25 25" fill="none" xmlns="http://www.w3.org/2000/svg">
<path d="M7.29134 6.25H5.20801M7.29134 9.375H5.20801M7.29134 12.5H5.20801M7.29134 15.625H5.20801M7.29134 18.75H5.20801M16.6663 17.7083C16.6663 17.1558 16.4468 16.6259 16.0561 16.2352C15.6654 15.8445 15.1355 15.625 14.583 15.625H12.4997C11.9471 15.625 11.4172 15.8445 11.0265 16.2352C10.6358 16.6259 10.4163 17.1558 10.4163 17.7083M7.29134 3.125H18.7497C19.0259 3.125 19.2909 3.23475 19.4862 3.4301C19.6816 3.62545 19.7913 3.8904 19.7913 4.16667V20.8333C19.7913 21.1096 19.6816 21.3746 19.4862 21.5699C19.2909 21.7653 19.0259 21.875 18.7497 21.875H7.29134C7.01507 21.875 6.75012 21.7653 6.55477 21.5699C6.35942 21.3746 6.24967 21.1096 6.24967 20.8333V4.16667C6.24967 3.8904 6.35942 3.62545 6.55477 3.4301C6.75012 3.23475 7.01507 3.125 7.29134 3.125ZM15.6247 10.4167C15.6247 10.9692 15.4052 11.4991 15.0145 11.8898C14.6238 12.2805 14.0939 12.5 13.5413 12.5C12.9888 12.5 12.4589 12.2805 12.0682 11.8898C11.6775 11.4991 11.458 10.9692 11.458 10.4167C11.458 9.86413 11.6775 9.33423 12.0682 8.94353C12.4589 8.55283 12.9888 8.33333 13.5413 8.33333C14.0939 8.33333 14.6238 8.55283 15.0145 8.94353C15.4052 9.33423 15.6247 9.86413 15.6247 10.4167Z" stroke="black" stroke-width="1.3" stroke-linecap="round" stroke-linejoin="round"/>
</svg>
