<svg width="30" height="30" viewBox="0 0 30 30" fill="none" xmlns="http://www.w3.org/2000/svg">
<path d="M2.9375 22L27.3125 22C27.8303 22 28.25 21.5803 28.25 21.0625V7.9375C28.25 7.41973 27.8303 7 27.3125 7L2.9375 7C2.41973 7 2 7.41973 2 7.9375V21.0625C2 21.5803 2.41973 22 2.9375 22Z" stroke="black" stroke-width="1.5" stroke-linejoin="round"/>
<path d="M15.125 19.1875C17.7138 19.1875 19.8125 17.0888 19.8125 14.5C19.8125 11.9112 17.7138 9.8125 15.125 9.8125C12.5362 9.8125 10.4375 11.9112 10.4375 14.5C10.4375 17.0888 12.5362 19.1875 15.125 19.1875Z" stroke="black" stroke-width="1.5" stroke-linecap="round" stroke-linejoin="round"/>
<path d="M28.25 11.6875C27.0068 11.6875 25.8145 11.1936 24.9354 10.3146C24.0564 9.43549 23.5625 8.2432 23.5625 7M2 11.6875C2.61557 11.6875 3.22511 11.5663 3.79383 11.3307C4.36254 11.0951 4.87929 10.7498 5.31456 10.3146C5.74984 9.87929 6.09512 9.36254 6.33069 8.79383C6.56625 8.22512 6.6875 7.61557 6.6875 7M28.25 17.3125C27.0068 17.3125 25.8145 17.8064 24.9354 18.6854C24.0564 19.5645 23.5625 20.7568 23.5625 22M2 17.3125C2.61557 17.3125 3.22511 17.4337 3.79383 17.6693C4.36254 17.9049 4.87929 18.2502 5.31456 18.6854C5.74984 19.1207 6.09512 19.6375 6.33069 20.2062C6.56625 20.7749 6.6875 21.3844 6.6875 22" stroke="black" stroke-width="1.5" stroke-linecap="round" stroke-linejoin="round"/>
</svg>
