<svg width="31" height="30" viewBox="0 0 31 30" fill="none" xmlns="http://www.w3.org/2000/svg">
<path d="M11.75 15L14.25 17.5L19.25 12.5" stroke="black" stroke-width="1.5" stroke-linecap="round" stroke-linejoin="round"/>
<path d="M15.4986 3.75C18.4184 6.33322 22.2292 7.67821 26.1236 7.5C26.6906 9.42877 26.8641 11.4518 26.6337 13.449C26.4034 15.4461 25.774 17.3766 24.7828 19.1257C23.7917 20.8747 22.4591 22.4067 20.8641 23.6306C19.2692 24.8545 17.4446 25.7453 15.4986 26.25C13.5526 25.7453 11.7279 24.8545 10.133 23.6306C8.53808 22.4067 7.20546 20.8747 6.21432 19.1257C5.22317 17.3766 4.59374 15.4461 4.36342 13.449C4.13309 11.4518 4.30658 9.42877 4.87357 7.5C8.76798 7.67821 12.5788 6.33322 15.4986 3.75Z" stroke="black" stroke-width="1.5" stroke-linecap="round" stroke-linejoin="round"/>
</svg>
