<svg width="47" height="49" viewBox="0 0 47 49" fill="none" xmlns="http://www.w3.org/2000/svg">
<g clip-path="url(#clip0_8464_42279)">
<g clip-path="url(#clip1_8464_42279)">
<path d="M22.2538 13.601L19.5903 20.0697C19.5 20.2891 19.2949 20.4398 19.0587 20.4605L5.43463 21.6577C5.10037 21.6871 4.84669 21.9714 4.85544 22.3067L5.1325 33.001C5.14015 33.295 5.34875 33.5453 5.63662 33.606L21.6756 36.9796C22.0677 37.0621 22.4663 37.103 22.8648 37.1021L22.8651 33.9304V13.722C22.8649 12.8392 22.5899 12.7848 22.2538 13.601ZM17.756 18.9232L1.69985 20.5457C1.20934 20.5952 0.851911 20.0913 1.06088 19.6448L5.33625 10.5061C5.42323 10.3202 5.59478 10.1877 5.79669 10.1506L23.4389 6.91023L18.2726 18.5492C18.1801 18.7575 17.9829 18.9003 17.756 18.9232ZM41.5654 21.6577L27.9414 20.4606C27.7051 20.4399 27.5 20.2891 27.4098 20.0698L24.7462 13.6011C24.4101 12.7848 24.135 12.8392 24.135 13.722V33.9303L24.1353 37.102C24.5338 37.1029 24.9324 37.0621 25.3246 36.9796L41.3635 33.6059C41.6514 33.5453 41.86 33.2949 41.8676 33.0009L42.1446 22.3067C42.1534 21.9713 41.8996 21.6871 41.5654 21.6577ZM45.3001 20.5457L29.2439 18.9232C29.017 18.9003 28.8198 18.7575 28.7274 18.5491L23.5611 6.91016L41.2033 10.1505C41.4052 10.1876 41.5768 10.3201 41.6638 10.506L45.9392 19.6447C46.1481 20.0913 45.7906 20.5952 45.3001 20.5457Z" fill="#48AFFF"/>
<path d="M33.5 40.6602C37.6421 40.6602 41 37.3023 41 33.1602C41 29.018 37.6421 25.6602 33.5 25.6602C29.3579 25.6602 26 29.018 26 33.1602C26 37.3023 29.3579 40.6602 33.5 40.6602Z" fill="#EF4A7B"/>
<path d="M39.5966 33.0201C39.5443 32.4129 39.3932 31.8216 39.1535 31.2739C39.0315 31.0008 38.8905 30.7378 38.7264 30.4923C38.6857 30.4299 38.6421 30.3703 38.6 30.3108C38.5782 30.2803 38.555 30.2512 38.5332 30.2221C38.5114 30.1931 38.4882 30.1626 38.4649 30.135L38.3952 30.0493C38.3719 30.0216 38.3472 29.994 38.3225 29.9664L38.2499 29.8836L38.231 29.8633L38.2121 29.843L38.1744 29.8037C37.971 29.5931 37.7516 29.4013 37.5177 29.2299C37.2838 29.06 37.0369 28.9118 36.7812 28.7839C36.2698 28.5297 35.7236 28.3612 35.1701 28.2871C35.7076 28.4382 36.2117 28.6779 36.6606 28.9873C36.8843 29.1413 37.095 29.3142 37.2882 29.5016C37.4814 29.689 37.6557 29.8924 37.8112 30.1074L37.8402 30.1481L37.8548 30.1684L37.8678 30.1887L37.923 30.2715C37.9404 30.2991 37.9594 30.3267 37.9768 30.3543L38.0276 30.4386C38.0451 30.4662 38.061 30.4952 38.077 30.5243C38.093 30.5534 38.109 30.581 38.125 30.61C38.1555 30.6681 38.186 30.7262 38.2136 30.7858C38.3269 31.0211 38.417 31.2681 38.4882 31.5165C38.6276 32.0162 38.6814 32.5334 38.6523 33.039C38.6218 33.5445 38.5085 34.037 38.3182 34.4859C38.1264 34.9333 37.8548 35.3401 37.5264 35.6902C37.1981 36.0403 36.8131 36.3309 36.4006 36.5502C36.1565 36.6795 35.9023 36.7812 35.6451 36.8568L35.4331 35.9343L32.6758 38.4983L36.2756 39.6053L36.0519 38.6305C36.4979 38.4504 36.9148 38.2151 37.294 37.939C37.817 37.5555 38.2702 37.0906 38.6349 36.5691C38.998 36.0476 39.2741 35.4665 39.4368 34.8578C39.598 34.2491 39.646 33.6244 39.5951 33.0172L39.5966 33.0201Z" fill="white"/>
<path d="M29.9472 36.8572C29.754 36.6698 29.5797 36.4664 29.4242 36.2514L29.3952 36.2107L29.3806 36.1903L29.3676 36.17L29.3124 36.0872C29.2949 36.0596 29.276 36.032 29.2586 36.0044L29.2078 35.9202C29.1903 35.8925 29.1744 35.8635 29.1584 35.8344C29.1424 35.8054 29.1264 35.7778 29.1104 35.7487C29.0799 35.6906 29.0494 35.6325 29.0218 35.5729C28.9085 35.3376 28.8185 35.0906 28.7472 34.8422C28.6078 34.3425 28.554 33.8253 28.5831 33.3198C28.6136 32.8142 28.7269 32.3218 28.9172 31.8729C29.109 31.4254 29.3806 31.0187 29.709 30.6685C30.0373 30.3184 30.4223 30.0279 30.8348 29.8085C31.0789 29.6792 31.3331 29.5775 31.5903 29.502L31.8023 30.4245L34.5596 27.859L30.9597 26.752L31.1835 27.7267C30.7375 27.9069 30.3205 28.1422 29.9414 28.4182C29.4184 28.8018 28.9651 29.2667 28.6005 29.7882C28.2374 30.3097 27.9613 30.8908 27.7986 31.4995C27.6388 32.1067 27.5894 32.7314 27.6403 33.3386C27.6926 33.9459 27.8437 34.5372 28.0834 35.0848C28.2054 35.3579 28.3463 35.6209 28.5105 35.8664C28.5511 35.9289 28.5947 35.9884 28.6368 36.048C28.6586 36.0785 28.6819 36.1075 28.7037 36.1366C28.7255 36.1657 28.7487 36.1962 28.7719 36.2238L28.8417 36.3095C28.8649 36.3371 28.8896 36.3647 28.9143 36.3923L28.987 36.4751L29.0058 36.4954L29.0247 36.5157L29.0625 36.555C29.2659 36.7656 29.4852 36.9574 29.7191 37.1288C29.953 37.2988 30.2 37.447 30.4557 37.5748C30.967 37.829 31.5132 37.9975 32.0667 38.0716C31.5292 37.9206 31.0251 37.6808 30.5762 37.3714C30.3525 37.2174 30.1419 37.0445 29.9487 36.8572H29.9472Z" fill="white"/>
</g>
</g>
<defs>
<clipPath id="clip0_8464_42279">
<rect width="47" height="48" fill="white" transform="translate(0 0.660156)"/>
</clipPath>
<clipPath id="clip1_8464_42279">
<rect width="45" height="45" fill="white" transform="translate(1 1.66016)"/>
</clipPath>
</defs>
</svg>
