<svg width="31" height="30" viewBox="0 0 31 30" fill="none" xmlns="http://www.w3.org/2000/svg">
<path d="M16.0039 16.752C18.075 16.752 19.7539 15.073 19.7539 13.002C19.7539 10.9309 18.075 9.25195 16.0039 9.25195C13.9328 9.25195 12.2539 10.9309 12.2539 13.002C12.2539 15.073 13.9328 16.752 16.0039 16.752Z" stroke="black" stroke-width="1.5" stroke-linecap="round" stroke-linejoin="round"/>
<path d="M23.0713 20.0709L17.7675 25.3746C17.2987 25.8429 16.6632 26.106 16.0006 26.106C15.338 26.106 14.7025 25.8429 14.2338 25.3746L8.92875 20.0709C7.53028 18.6723 6.57792 16.8905 6.19211 14.9507C5.8063 13.0109 6.00437 11.0003 6.76126 9.17305C7.51815 7.34582 8.79988 5.78406 10.4444 4.68527C12.0888 3.58648 14.0222 3 16 3C17.9778 3 19.9112 3.58648 21.5557 4.68527C23.2001 5.78406 24.4819 7.34582 25.2387 9.17305C25.9956 11.0003 26.1937 13.0109 25.8079 14.9507C25.4221 16.8905 24.4697 18.6723 23.0713 20.0709Z" stroke="black" stroke-width="1.5" stroke-linecap="round" stroke-linejoin="round"/>
</svg>
