<svg width="28" height="23" viewBox="0 0 28 23" fill="none" xmlns="http://www.w3.org/2000/svg">
<path d="M5.53027 10.3261C5.53027 9.1717 5.53027 8.59591 5.74478 8.07657C5.95929 7.55864 6.36856 7.14938 7.18426 6.33367L8.11004 5.40789C8.92574 4.59219 9.335 4.18293 9.85293 3.96842C10.3723 3.75391 10.9495 3.75391 12.1025 3.75391H15.8931C17.0475 3.75391 17.6233 3.75391 18.1426 3.96842C18.662 4.18293 19.0698 4.59219 19.8855 5.40789L20.8113 6.33367C21.6284 7.14938 22.0348 7.55864 22.2508 8.07657C22.4653 8.59591 22.4653 9.1717 22.4653 10.3261V16.4552C22.4653 19.1168 22.4653 20.4462 21.6383 21.2732C20.8113 22.1002 19.4819 22.1002 16.8203 22.1002H11.1753C8.51366 22.1002 7.18426 22.1002 6.35727 21.2732C5.53027 20.4462 5.53027 19.1168 5.53027 16.4552V10.3261Z" stroke="black" stroke-width="1.4"/>
<path d="M9.76625 3.75223L5.72866 1.05956C5.67061 1.02073 5.60234 1 5.53249 1C5.46265 1 5.39438 1.02073 5.33633 1.05956L1.6572 3.51373C1.61373 3.54269 1.57723 3.58094 1.55034 3.62573C1.52345 3.67051 1.50684 3.72071 1.50171 3.77269C1.49658 3.82468 1.50305 3.87715 1.52067 3.92633C1.53828 3.9755 1.5666 4.02016 1.60357 4.05706L5.24037 7.69385C5.33301 7.78652 5.40649 7.89654 5.45662 8.01761C5.50674 8.13868 5.53252 8.26844 5.53249 8.39948C5.53249 8.94986 5.97986 9.39723 6.53025 9.39723H21.4697C22.0201 9.39723 22.4675 8.94986 22.4675 8.39948C22.4679 8.13493 22.5729 7.88127 22.7596 7.69385L26.3964 4.05706C26.4334 4.02016 26.4617 3.9755 26.4793 3.92633C26.4969 3.87715 26.5034 3.82468 26.4983 3.77269C26.4932 3.72071 26.4766 3.67051 26.4497 3.62573C26.4228 3.58094 26.3863 3.54269 26.3428 3.51373L22.6651 1.05956C22.607 1.02073 22.5388 1 22.4689 1C22.3991 1 22.3308 1.02073 22.2728 1.05956L18.2338 3.75223" stroke="black" stroke-width="1.4" stroke-linecap="round"/>
</svg>
