<svg width="31" height="29" viewBox="0 0 31 29" fill="none" xmlns="http://www.w3.org/2000/svg">
<path d="M5.2998 22.7996V5.73295C5.2998 5.16715 5.60685 4.62453 6.15338 4.22445C6.69992 3.82437 7.44117 3.59961 8.21409 3.59961H22.7855C23.5584 3.59961 24.2996 3.82437 24.8462 4.22445C25.3927 4.62453 25.6998 5.16715 25.6998 5.73295V22.7996L21.3283 20.6663L18.4141 22.7996L15.4998 20.6663L12.5855 22.7996L9.67124 20.6663L5.2998 22.7996Z" stroke="black" stroke-width="1.5" stroke-linecap="round" stroke-linejoin="round"/>
<path d="M18.4998 15.6004V13.2004C18.4998 12.5639 18.247 11.9534 17.7968 11.5033C17.3467 11.0532 16.7363 10.8004 16.0998 10.8004H11.2998M11.2998 10.8004L13.6998 8.40039M11.2998 10.8004L13.6998 13.2004" stroke="black" stroke-width="1.5" stroke-linecap="round" stroke-linejoin="round"/>
</svg>
