<svg width="31" height="30" viewBox="0 0 31 30" fill="none" xmlns="http://www.w3.org/2000/svg">
<path d="M9.25 23.75C10.6307 23.75 11.75 22.6307 11.75 21.25C11.75 19.8693 10.6307 18.75 9.25 18.75C7.86929 18.75 6.75 19.8693 6.75 21.25C6.75 22.6307 7.86929 23.75 9.25 23.75Z" stroke="black" stroke-width="1.5" stroke-linecap="round" stroke-linejoin="round"/>
<path d="M21.75 23.75C23.1307 23.75 24.25 22.6307 24.25 21.25C24.25 19.8693 23.1307 18.75 21.75 18.75C20.3693 18.75 19.25 19.8693 19.25 21.25C19.25 22.6307 20.3693 23.75 21.75 23.75Z" stroke="black" stroke-width="1.5" stroke-linecap="round" stroke-linejoin="round"/>
<path d="M6.75 21.25H4.25V7.5C4.25 7.16848 4.3817 6.85054 4.61612 6.61612C4.85054 6.3817 5.16848 6.25 5.5 6.25H16.75V21.25M11.75 21.25H19.25M24.25 21.25H26.75V13.75M26.75 13.75H16.75M26.75 13.75L23 7.5H16.75" stroke="black" stroke-width="1.5" stroke-linecap="round" stroke-linejoin="round"/>
</svg>
