<svg width="30" height="30" viewBox="0 0 30 30" fill="none" xmlns="http://www.w3.org/2000/svg">
<path d="M12.8703 27.4434H11.7453C7.68531 27.4434 5.65406 27.4434 4.39281 26.1622C3.13156 24.8809 3.13281 22.8184 3.13281 18.6934V12.4434C3.13281 8.31844 3.13281 6.25594 4.39531 4.97594C5.65406 3.69219 7.68531 3.69219 11.7453 3.69219H15.4366C19.4978 3.69219 21.8703 3.76219 23.1316 5.04219C24.3941 6.32469 24.3816 8.31719 24.3816 12.4422V13.9259M19.9391 2.49219V4.99219M13.6891 2.49219V4.99219M7.43906 2.49219V4.99219M8.75781 18.7422H13.7578M8.75781 12.4922H18.7578" stroke="black" stroke-width="1.5" stroke-linecap="round" stroke-linejoin="round"/>
<path opacity="0.93" d="M25.9657 18.5905C24.8332 17.3217 24.1544 17.398 23.4007 17.6242C22.8719 17.6992 21.0619 19.8117 20.3069 20.4867C19.0682 21.7092 17.8232 22.9692 17.7419 23.1342C17.5069 23.5155 17.2894 24.1905 17.1832 24.9455C16.9869 26.078 16.7044 27.3517 17.0619 27.4617C17.4194 27.5717 18.4207 27.3617 19.5519 27.1955C20.3069 27.058 20.8344 26.908 21.2119 26.6817C21.7407 26.3642 22.7207 25.248 24.4119 23.5867C25.4707 22.4705 26.4932 21.6992 26.7957 20.9455C27.0969 19.813 26.6457 19.2092 25.9657 18.5905Z" stroke="black" stroke-width="1.5" stroke-linecap="round" stroke-linejoin="round"/>
</svg>
