<svg width="26" height="26" viewBox="0 0 26 26" fill="none" xmlns="http://www.w3.org/2000/svg">
<g clip-path="url(#clip0_8464_43319)">
<path d="M21.3051 21.5879L21.3048 21.5883C19.529 23.6641 16.7864 24.75 12.9962 24.75C9.20778 24.75 6.46673 23.6632 4.69332 21.588C4.0849 20.8744 3.75 19.968 3.75 19.0305L3.75 18.3091L3.75 18.3088C3.74988 18.0379 3.80315 17.7697 3.90675 17.5194C4.01036 17.2691 4.16228 17.0417 4.35382 16.8501C4.54537 16.6586 4.77279 16.5067 5.02307 16.4031L4.74427 15.7295L5.02307 16.4031C5.27336 16.2995 5.54161 16.2462 5.8125 16.2463H5.81283H20.1895H20.1899C20.4607 16.2462 20.7289 16.2994 20.9791 16.403C21.2293 16.5065 21.4567 16.6584 21.6482 16.8498C21.8398 17.0413 21.9917 17.2686 22.0954 17.5187C22.199 17.7689 22.2524 18.0371 22.2524 18.3079V19.0266C22.2524 19.0267 22.2524 19.0267 22.2524 19.0267C22.2522 19.9661 21.9163 20.8745 21.3051 21.5879ZM7.37552 13.4949H6.8991C6.602 13.4768 6.30959 13.4094 6.03391 13.2951L5.74677 13.988L6.03391 13.2951C5.70767 13.1599 5.41127 12.9618 5.16165 12.712C4.91203 12.4621 4.71408 12.1656 4.57912 11.8393C4.53401 11.7302 4.49624 11.6185 4.46594 11.505C4.50667 11.5963 4.55082 11.6748 4.5891 11.7382C4.6456 11.8319 4.70574 11.9185 4.75271 11.9857C4.75947 11.9953 4.76591 12.0045 4.77208 12.0133C4.81344 12.0723 4.84228 12.1135 4.86753 12.1531L5.48248 11.7612L4.86753 12.1531C5.08306 12.4913 5.4419 12.6534 5.61872 12.7283C5.71616 12.7696 5.81558 12.8061 5.89241 12.8344C5.89952 12.837 5.90644 12.8395 5.91314 12.842C6.00295 12.8751 6.05449 12.8949 6.0898 12.9113L6.63089 13.1623L6.99725 12.6916C7.04914 12.6249 7.11715 12.5726 7.19487 12.5395C7.27259 12.5063 7.35747 12.4935 7.44149 12.5023C7.52552 12.511 7.60594 12.541 7.67517 12.5895L8.10501 11.9749L7.67517 12.5895C7.7444 12.6379 7.80017 12.7031 7.83721 12.7791C7.87426 12.855 7.89136 12.9391 7.88692 13.0235C7.88247 13.1078 7.85662 13.1897 7.8118 13.2613C7.76698 13.3329 7.70467 13.3919 7.63073 13.4328C7.55679 13.4737 7.47367 13.495 7.38918 13.4949H7.38802H7.37552ZM4.56269 3.74858H7.68387C7.70262 3.74872 7.72125 3.75167 7.73914 3.75733L8.25087 3.91941L8.56934 3.48729C9.25665 2.55469 10.2209 1.86291 11.3245 1.51057C12.4281 1.15823 13.6148 1.16333 14.7154 1.52514C15.8159 1.88696 16.7742 2.58701 17.4534 3.52548C18.1327 4.46395 18.4983 5.59293 18.4982 6.75143V6.7519C18.4988 7.94462 18.1117 9.10521 17.3953 10.0588C16.6788 11.0124 15.6719 11.7072 14.5261 12.0387C13.3804 12.3702 12.158 12.3203 11.0431 11.8965C9.92818 11.4727 8.98122 10.6981 8.34491 9.68929L7.9201 9.01582L7.27323 9.48013C7.03722 9.64952 6.74789 9.74947 6.43541 9.74947H6.43511L5.08304 9.75L4.37507 9.75028V3.93619C4.37507 3.88643 4.39484 3.83871 4.43002 3.80353C4.46521 3.76835 4.51293 3.74858 4.56269 3.74858Z" stroke="black" stroke-width="1.5"/>
</g>
<defs>
<clipPath id="clip0_8464_43319">
<rect width="25" height="25" fill="white" transform="translate(0.5 0.5)"/>
</clipPath>
</defs>
</svg>
